<?xml version="1.0" encoding="utf-8"?>
<!-- Generator: Adobe Illustrator 23.0.6, SVG Export Plug-In . SVG Version: 6.00 Build 0)  -->
<svg version="1.1" id="Layer_1" xmlns="http://www.w3.org/2000/svg" xmlns:xlink="http://www.w3.org/1999/xlink" x="0px" y="0px"
	 viewBox="0 0 800 200" style="enable-background:new 0 0 800 200;" xml:space="preserve">
<style type="text/css">
	.st0{fill:#3498DB;}
	.st1{fill:#E74C3C;}
	.st2{display:none;fill:none;}
	.st3{fill:none;}
</style>
<g transform="matrix(0.6666666666666666,0,0,0.6666666666666666,249.39393939393938,609.5930041096819)">
	<g id="tight-bounds" transform="matrix(1,0,0,1,0.2400000000000091,0.1613447993761099)">
		<g>
			<g>
				<path id="qz-0" class="st0" d="M63.3-882.8L63.3-882.8c3.3,0,6,4.5,6,10.1v226c0,5.6-2.7,10.1-6,10.1l0,0c-3.3,0-6-4.5-6-10.1
					v-226C57.3-878.3,60-882.8,63.3-882.8z"/>
			</g>
			<g transform="matrix(1,0,0,1,225.75455650990858,24.026971865339974)">
				<g id="textblocktransform">
					<g>
						<g transform="matrix(1,0,0,1,0,0)">
							<path id="text-0" class="st0" d="M-125.3-780.7l45.9-100.2h16.5l17.7,100.2h-13.3l-3.8-22.3h-40.2l-10.1,22.3H-125.3z
								 M-97.2-814.8h33l-7.4-44.5c-0.4-2.1-0.6-5.8-0.7-11.1l0,0H-73c-1.9,5.4-3.2,9.1-4.1,11.1l0,0L-97.2-814.8z M-37.6-780.7
								L-23-886.3h12l-14.8,105.6H-37.6z M-7.9-780.7l10.7-76.8h11.9L4-780.7H-7.9z M4.6-872.5l2.1-13.9H19L17-872.5H4.6z M89.6-779
								c-9.7,0-17.4-2.6-23.1-7.7c-5.6-5.1-8.5-12.3-8.5-21.6l0,0c0-2.9,0.1-5.2,0.4-6.7l0,0h13.3c-0.5,2.7-0.7,5-0.7,6.9l0,0
								c0,5.8,1.7,10.2,5.1,13c3.4,2.8,8.2,4.2,14.5,4.2l0,0c5.2,0,9.9-1.4,14.3-4.1c4.3-2.7,6.5-7.3,6.5-13.6l0,0
								c0-3.2-0.8-5.9-2.5-8.2c-1.7-2.2-3.8-4.1-6.4-5.6c-2.5-1.5-6-3.2-10.4-5.3l0,0c-5.2-2.2-9.3-4.4-12.6-6.4
								c-3.2-2-5.9-4.6-8.2-7.9c-2.2-3.3-3.4-7.4-3.4-12.3l0,0c0-9.2,2.7-16.2,8.2-21.2c5.5-5,13.1-7.4,22.9-7.4l0,0
								c10.9,0,18.8,2.8,23.7,8.4c4.9,5.6,7.3,13.2,7.3,22.7l0,0h-13.3c0-12.9-6.1-19.3-18.4-19.3l0,0c-4.1,0-8,1-11.6,3.1
								c-3.7,2.1-5.5,6.2-5.5,12.2l0,0c0,2.9,0.8,5.4,2.4,7.4c1.6,2,3.6,3.7,6,5.1c2.4,1.4,5.8,3,10.1,4.8l0,0
								c5.3,2.2,9.6,4.4,12.9,6.3c3.3,2,6.2,4.8,8.5,8.3c2.3,3.5,3.5,7.9,3.5,13.1l0,0c0,5.2-1,10.1-3.1,14.8
								c-2.1,4.7-5.8,8.7-11,11.8C105.3-780.6,98.3-779,89.6-779L89.6-779z M157.3-779c-5.9,0-10.7-2.4-14.2-7.2
								c-3.5-4.8-5.3-11.9-5.3-21.3l0,0c0-11.2,1.4-20.7,4.3-28.5c2.9-7.8,6.6-13.6,11.1-17.5c4.5-3.9,9.3-5.8,14.3-5.8l0,0
								c8.1,0,13.4,4.1,15.9,12.4l0,0l2.6-10.7h9.5c-5.9,41.5-8.9,62.8-8.9,63.8l0,0c0,1.4,0.3,2.4,0.9,3.1c0.6,0.7,1.5,1,2.6,1l0,0
								h4.7l-1.2,8.3c-2.2,1.6-5,2.3-8.2,2.3l0,0c-3.2,0-5.7-1-7.6-2.9c-1.9-1.9-2.8-5-2.9-9.2l0,0c-2.8,4.2-5.6,7.3-8.4,9.2
								C163.8-780,160.7-779,157.3-779L157.3-779z M161-789.7c4.2,0,7.7-2.5,10.4-7.6c2.8-5.1,4.8-10.9,6.1-17.6
								c1.3-6.7,1.9-12.4,1.9-17.3l0,0c0-11-3.4-16.5-10.1-16.5l0,0c-4.8,0-8.6,2.5-11.5,7.4c-2.9,4.9-4.9,10.7-6,17.2
								c-1.1,6.5-1.7,12.5-1.7,17.8l0,0C150.2-795.2,153.8-789.7,161-789.7L161-789.7z M195-754.2c-3.4,0-6.7-0.6-9.8-1.8l0,0
								l1.2-8.3h6.4c2.2,0,4-0.6,5.3-1.8c1.3-1.2,2.1-3,2.3-5.2l0,0l12.1-86.3h12l-12,85.7c-0.8,5.1-2.6,9.3-5.3,12.6
								C204.4-755.8,200.4-754.2,195-754.2L195-754.2z M214.1-872.5l2-13.9h12.4l-2,13.9H214.1z M250.5-779
								c-5.9,0-10.7-2.4-14.2-7.2s-5.3-11.9-5.3-21.3l0,0c0-11.2,1.4-20.7,4.3-28.5c2.9-7.8,6.6-13.6,11.1-17.5
								c4.5-3.9,9.3-5.8,14.2-5.8l0,0c8.1,0,13.4,4.1,15.9,12.4l0,0l2.6-10.7h9.5c-5.9,41.5-8.9,62.8-8.9,63.8l0,0
								c0,1.4,0.3,2.4,1,3.1c0.6,0.7,1.5,1,2.5,1l0,0h4.7l-1.2,8.3c-2.2,1.6-5,2.3-8.2,2.3l0,0c-3.2,0-5.7-1-7.6-2.9
								c-1.9-1.9-2.8-5-2.9-9.2l0,0c-2.8,4.2-5.6,7.3-8.4,9.2C257-780,253.9-779,250.5-779L250.5-779z M254.1-789.7
								c4.2,0,7.7-2.5,10.5-7.6c2.8-5.1,4.8-10.9,6-17.6c1.3-6.7,1.9-12.4,1.9-17.3l0,0c0-11-3.4-16.5-10.1-16.5l0,0
								c-4.8,0-8.6,2.5-11.5,7.4c-2.9,4.9-4.9,10.7-6,17.2c-1.1,6.5-1.7,12.5-1.7,17.8l0,0C243.3-795.2,246.9-789.7,254.1-789.7
								L254.1-789.7z M317.2-779c-5.9,0-10.7-2.4-14.2-7.2s-5.3-11.9-5.3-21.3l0,0c0-11.2,1.4-20.7,4.3-28.5
								c2.9-7.8,6.6-13.6,11.1-17.5c4.5-3.9,9.3-5.8,14.3-5.8l0,0c7.1,0,12.2,3.4,15.3,10.2l0,0l5.3-37.2h12l-14.8,105.6h-9.5v-10.4
								C330.8-783,324.6-779,317.2-779L317.2-779z M320.9-789.7c4.6,0,8.3-2.5,11.2-7.6c2.9-5.1,4.9-10.9,6-17.5
								c1.2-6.6,1.8-12.4,1.8-17.4l0,0c0-11-3.6-16.5-10.7-16.5l0,0c-4.8,0-8.6,2.5-11.5,7.4c-2.9,4.9-4.9,10.7-6,17.2
								c-1.1,6.5-1.7,12.5-1.7,17.8l0,0C310.1-795.2,313.7-789.7,320.9-789.7L320.9-789.7z M365-780.7l10.7-76.8h12l-10.8,76.8H365z
								 M377.4-872.5l2-13.9h12.4l-2,13.9H377.4z M417-779c-5.9,0-10.7-2.4-14.2-7.2c-3.5-4.8-5.3-11.9-5.3-21.3l0,0
								c0-11.2,1.4-20.7,4.3-28.5c2.9-7.8,6.6-13.6,11.1-17.5c4.5-3.9,9.3-5.8,14.3-5.8l0,0c8.1,0,13.4,4.1,15.9,12.4l0,0l2.6-10.7
								h9.5c-5.9,41.5-8.9,62.8-8.9,63.8l0,0c0,1.4,0.3,2.4,0.9,3.1c0.6,0.7,1.5,1,2.6,1l0,0h4.7l-1.2,8.3c-2.2,1.6-5,2.3-8.2,2.3
								l0,0c-3.2,0-5.7-1-7.6-2.9c-1.9-1.9-2.8-5-2.9-9.2l0,0c-2.8,4.2-5.6,7.3-8.4,9.2C423.5-780,420.4-779,417-779L417-779z
								 M420.6-789.7c4.2,0,7.7-2.5,10.4-7.6c2.8-5.1,4.8-10.9,6.1-17.6c1.3-6.7,1.9-12.4,1.9-17.3l0,0c0-11-3.4-16.5-10.1-16.5l0,0
								c-4.8,0-8.6,2.5-11.5,7.4c-2.9,4.9-4.9,10.7-6,17.2c-1.1,6.5-1.7,12.5-1.7,17.8l0,0C409.8-795.2,413.4-789.7,420.6-789.7
								L420.6-789.7z M462.5-780.7l10.8-76.8h9.3v11.4c1.7-3.3,4.1-6.3,7.4-9.1c3.3-2.7,7.6-4.1,13-4.1l0,0c5.8,0,10.1,1.6,12.7,4.9
								c2.6,3.3,3.9,7.4,3.9,12.4l0,0c0,2.9-2.7,23.4-8.2,61.3l0,0h-12c5.3-36.1,7.9-55.6,7.9-58.6l0,0c0-6.2-2.9-9.3-8.8-9.3l0,0
								c-4.8,0-8.7,2.3-11.9,6.8c-3.2,4.5-5.3,10.6-6.4,18.2l0,0l-6,42.9H462.5z"/>
						</g>
					</g>
					<g transform="matrix(1,0,0,1,0,100.16933789123838)">
						<g transform="matrix(1,0,0,1,0,0)">
							<path id="text-1" class="st0" d="M-121.7-789.7l-3.6-31.7h4.4l2.4,22.4c0.1,0.7,0.2,2.3,0.3,4.8l0,0h0.2
								c1-2.8,1.6-4.4,1.8-4.8l0,0l8.8-22.4h6.5l1.2,22.4c0.1,1,0.1,2.6,0.1,4.8l0,0h0.2l2.1-4.8l10.1-22.4h4.4l-14.7,31.7h-6.1
								l-1.1-22.2c-0.1-1.3-0.1-3-0.1-5.2l0,0h-0.2c-0.8,2.3-1.4,4.1-1.8,5.2l0,0l-8.9,22.2H-121.7z M-74.1-789.2
								c-3.6,0-6.3-0.8-8.1-2.4c-1.8-1.6-2.7-4-2.7-7.3l0,0c0-3,0.5-5.7,1.4-8.1c0.9-2.4,2.4-4.3,4.3-5.7c2-1.4,4.4-2.1,7.4-2.1l0,0
								c3.1,0,5.4,0.7,7.1,2.1c1.6,1.4,2.4,3.5,2.4,6.2l0,0c0,1-0.1,2.1-0.4,3.4l0,0l-0.4,2h-17.6c-0.1,0.4-0.1,1-0.1,1.8l0,0
								c0,2.2,0.5,3.8,1.6,4.9c1.1,1.1,2.7,1.6,4.9,1.6l0,0c1.8,0,3.3-0.4,4.5-1.3c1.3-0.9,2-2.3,2.3-4.1l0,0h4
								c-0.5,2.8-1.7,5-3.6,6.5C-69-789.9-71.4-789.2-74.1-789.2L-74.1-789.2z M-79.9-804.1h13.4c0.1-0.4,0.2-1,0.2-1.8l0,0
								c0-3.5-1.8-5.3-5.5-5.3l0,0c-2.1,0-3.8,0.6-5.2,1.8C-78.4-808.2-79.4-806.4-79.9-804.1L-79.9-804.1z M-47.8-789.2
								c-1.7,0-3.2-0.3-4.5-1c-1.3-0.6-2.2-1.6-2.9-2.9l0,0h-0.3l-1.1,3.3h-3l5.9-33.4h4.1l-2.1,11.9h0.3c2-2.2,4.5-3.3,7.5-3.3l0,0
								c2.4,0,4.3,0.7,5.7,2.2c1.3,1.5,2,3.7,2,6.6l0,0c0,3.3-0.5,6.1-1.5,8.7c-1,2.5-2.3,4.5-4.1,5.8
								C-43.5-789.9-45.5-789.2-47.8-789.2L-47.8-789.2z M-48.7-792.5c2.7,0,4.7-1.2,6.1-3.7c1.4-2.5,2.1-5.6,2.1-9.4l0,0
								c0-2-0.4-3.4-1.2-4.3c-0.8-0.9-2.1-1.3-3.8-1.3l0,0c-1.8,0-3.3,0.6-4.5,1.8c-1.2,1.2-2.2,2.7-2.8,4.6
								c-0.6,1.9-0.9,3.9-0.9,6.1l0,0c0,2,0.4,3.6,1.2,4.6C-51.7-793.1-50.4-792.5-48.7-792.5L-48.7-792.5z M-20.8-789.7l5.6-31.7
								h15c2.9,0,5.1,0.7,6.6,2.2c1.5,1.5,2.2,3.5,2.2,6.1l0,0c0,2.2-0.5,4.1-1.5,5.8c-1,1.7-2.3,3-4.1,4s-3.6,1.4-5.8,1.4l0,0
								h-11.5l-2.1,12.1H-20.8z M-13.6-805.7h10.8c1.9,0,3.6-0.6,4.9-1.9c1.3-1.3,2-3,2-5.1l0,0c0-1.5-0.4-2.7-1.2-3.6
								c-0.8-0.8-2-1.2-3.6-1.2l0,0h-10.8L-13.6-805.7z M9.8-789.7l4.3-24.3h3.1l-0.2,3.6h0.3c1.6-2.8,3.8-4.2,6.5-4.2l0,0
								c0.8,0,1.5,0.1,2.1,0.4l0,0l-0.7,3.9h-1.7c-1.7,0-3.2,0.5-4.6,1.6c-1.3,1.1-2.2,2.8-2.6,5l0,0l-2.4,13.9H9.8z M35.5-789.2
								c-3.1,0-5.5-0.8-7.3-2.5c-1.7-1.7-2.6-4-2.6-7.1l0,0c0-0.8,0.1-1.9,0.2-3.4l0,0c0.6-4.2,2-7.3,4.1-9.4c2.1-2,4.9-3.1,8.5-3.1
								l0,0c3.1,0,5.6,0.8,7.3,2.5c1.7,1.7,2.6,4,2.6,7l0,0c0,0.5-0.1,1.7-0.3,3.5l0,0c-0.6,4.2-2,7.3-4.1,9.3
								C41.9-790.2,39.1-789.2,35.5-789.2L35.5-789.2z M35.7-792.6c2.4,0,4.3-0.8,5.6-2.3c1.3-1.5,2.2-3.9,2.7-7.3l0,0
								c0.2-1.3,0.3-2.4,0.3-3.4l0,0c-0.1-1.8-0.6-3.2-1.6-4.2c-1-1-2.5-1.4-4.5-1.4l0,0c-2.4,0-4.3,0.8-5.6,2.3
								c-1.3,1.5-2.2,4-2.7,7.3l0,0c-0.2,1.1-0.2,2.2-0.2,3.4l0,0c0.1,1.8,0.6,3.2,1.6,4.2C32.2-793.1,33.7-792.6,35.7-792.6
								L35.7-792.6z M59-781.3c-2.8,0-5-0.6-6.6-1.7c-1.6-1.2-2.4-2.8-2.4-5.1l0,0v-0.5h4c0.1,2.6,1.7,3.9,4.9,3.9l0,0
								c4.2,0,6.7-2.6,7.8-7.8l0,0l0.2-1h-0.3c-2,2.2-4.5,3.3-7.5,3.3l0,0c-2.5,0-4.4-0.7-5.8-2.1c-1.4-1.4-2.1-3.5-2.1-6.3l0,0
								c0-3.2,0.5-6,1.5-8.4c1-2.5,2.3-4.3,4.1-5.7c1.8-1.3,3.8-2,6.1-2l0,0c1.7,0,3.2,0.3,4.5,1c1.3,0.6,2.2,1.6,2.9,2.9l0,0h0.3
								l1.1-3.3h3l-3.8,21.4c-0.7,3.8-2,6.6-3.9,8.5C64.9-782.3,62.3-781.3,59-781.3L59-781.3z M60.6-793.5c1.7,0,3.2-0.6,4.4-1.7
								c1.2-1.1,2.2-2.6,2.8-4.5c0.6-1.8,0.9-3.8,0.9-5.9l0,0c0-1.9-0.4-3.3-1.2-4.2s-2.1-1.4-3.8-1.4l0,0c-2.7,0-4.7,1.2-6.1,3.6
								c-1.4,2.4-2.1,5.4-2.1,9.1l0,0c0,1.8,0.4,3.2,1.2,3.9C57.5-793.9,58.8-793.5,60.6-793.5L60.6-793.5z M76.5-789.7l4.3-24.3
								h3.1l-0.2,3.6H84c1.6-2.8,3.8-4.2,6.5-4.2l0,0c0.8,0,1.5,0.1,2.1,0.4l0,0l-0.7,3.9h-1.7c-1.7,0-3.2,0.5-4.6,1.6
								c-1.3,1.1-2.2,2.8-2.6,5l0,0l-2.4,13.9H76.5z M99.9-789.2c-2.4,0-4.2-0.7-5.6-2.2c-1.4-1.5-2-3.7-2-6.6l0,0
								c0-3.3,0.5-6.2,1.5-8.7c1-2.5,2.4-4.4,4.2-5.8c1.8-1.4,3.8-2.1,5.9-2.1l0,0c1.7,0,3.1,0.3,4.1,0.8c1,0.5,1.9,1.4,2.4,2.5l0,0
								h0.3l1.4-2.8h3.1l-1.2,6.1c-1.7,9-2.5,13.7-2.5,14.1l0,0c0,0.8,0.5,1.2,1.4,1.2l0,0h1.8l-0.5,2.6c-0.3,0.2-0.7,0.4-1.3,0.5
								c-0.5,0.2-1.1,0.2-1.8,0.2l0,0c-2.2,0-3.4-1.2-3.4-3.5l0,0c0-0.4,0-0.7,0-0.9l0,0h-0.2c-0.8,1.4-2,2.5-3.4,3.3
								C103-789.6,101.5-789.2,99.9-789.2L99.9-789.2z M100.9-792.5c1.9,0,3.5-0.7,4.8-2.1c1.3-1.4,2.2-3.1,2.8-5.1
								c0.6-2,0.9-3.9,0.9-5.8l0,0c0-1.9-0.4-3.3-1.2-4.3c-0.8-1-2-1.4-3.8-1.4l0,0c-1.7,0-3.1,0.6-4.3,1.8
								c-1.2,1.2-2.1,2.7-2.7,4.7c-0.6,2-0.9,4.1-0.9,6.5l0,0C96.5-794.4,98-792.5,100.9-792.5L100.9-792.5z M117.6-789.7l4.3-24.3
								h3v3.3h0.3c2-2.6,4.6-3.8,7.6-3.8l0,0c3.4,0,5.3,1.3,6,3.8l0,0h0.3c1-1.2,2.2-2.2,3.6-2.8c1.4-0.7,2.8-1,4.2-1l0,0
								c4.3,0,6.4,1.8,6.4,5.3l0,0c0,0.7-0.1,1.4-0.2,2.1l0,0l-3.1,17.5h-4.1l3-16.8c0.1-0.7,0.2-1.2,0.2-1.4l0,0
								c0-1.2-0.3-2-0.9-2.5c-0.6-0.5-1.4-0.7-2.4-0.7l0,0c-1.7,0-3.3,0.7-4.7,2c-1.4,1.4-2.3,3.2-2.7,5.5l0,0l-2.4,14h-4.1l3-16.8
								c0.1-0.6,0.1-1,0.1-1.5l0,0c0-1.2-0.3-2-0.8-2.5c-0.6-0.5-1.3-0.7-2.4-0.7l0,0c-1.1,0-2.2,0.3-3.3,0.9
								c-1.1,0.6-2,1.5-2.7,2.6c-0.8,1.1-1.3,2.5-1.6,4l0,0l-2.4,14H117.6z M156-789.7l4.3-24.3h3v3.3h0.3c2-2.6,4.6-3.8,7.6-3.8
								l0,0c3.4,0,5.3,1.3,6,3.8l0,0h0.3c1-1.2,2.2-2.2,3.6-2.8c1.4-0.7,2.8-1,4.2-1l0,0c4.3,0,6.4,1.8,6.4,5.3l0,0
								c0,0.7-0.1,1.4-0.2,2.1l0,0l-3.1,17.5h-4.1l3-16.8c0.1-0.7,0.2-1.2,0.2-1.4l0,0c0-1.2-0.3-2-0.9-2.5
								c-0.6-0.5-1.4-0.7-2.4-0.7l0,0c-1.7,0-3.3,0.7-4.7,2c-1.4,1.4-2.4,3.2-2.8,5.5l0,0l-2.4,14h-4.1l3-16.8
								c0.1-0.6,0.1-1,0.1-1.5l0,0c0-1.2-0.3-2-0.8-2.5c-0.6-0.5-1.3-0.7-2.4-0.7l0,0c-1.1,0-2.2,0.3-3.3,0.9
								c-1.1,0.6-2,1.5-2.8,2.6c-0.8,1.1-1.3,2.5-1.6,4l0,0l-2.4,14H156z M205.6-789.2c-3.6,0-6.3-0.8-8.1-2.4
								c-1.8-1.6-2.7-4-2.7-7.3l0,0c0-3,0.5-5.7,1.4-8.1c0.9-2.4,2.4-4.3,4.3-5.7c2-1.4,4.4-2.1,7.4-2.1l0,0c3.1,0,5.4,0.7,7.1,2.1
								c1.6,1.4,2.4,3.5,2.4,6.2l0,0c0,1-0.1,2.1-0.4,3.4l0,0l-0.4,2h-17.6c-0.1,0.4-0.1,1-0.1,1.8l0,0c0,2.2,0.5,3.8,1.6,4.9
								c1.1,1.1,2.7,1.6,4.9,1.6l0,0c1.8,0,3.3-0.4,4.5-1.3c1.2-0.9,2-2.3,2.3-4.1l0,0h4c-0.5,2.8-1.7,5-3.6,6.5
								C210.7-789.9,208.3-789.2,205.6-789.2L205.6-789.2z M199.8-804.1h13.4c0.1-0.4,0.2-1,0.2-1.8l0,0c0-3.5-1.8-5.3-5.5-5.3l0,0
								c-2.1,0-3.8,0.6-5.2,1.8C201.3-808.2,200.3-806.4,199.8-804.1L199.8-804.1z M220.2-789.7l4.3-24.3h3.1l-0.2,3.6h0.3
								c1.6-2.8,3.8-4.2,6.5-4.2l0,0c0.8,0,1.5,0.1,2.1,0.4l0,0l-0.7,3.9h-1.7c-1.7,0-3.2,0.5-4.6,1.6c-1.3,1.1-2.2,2.8-2.6,5l0,0
								l-2.4,13.9H220.2z"/>
						</g>
					</g>
				</g>
			</g>
			<g>
				<g>
					<g>
						<path class="st1" d="M-122.2-724.9c-13.2,0-25.2-5.7-35.5-16.9c-1.1-1.1-1-2.9,0.2-4c1.2-1.1,2.9-1,4,0.2
							c9.3,10,19.8,15.1,31.4,15.1c13.1,0,24-8.5,30.9-15.7c1.1-1.1,2.9-1.2,4-0.1c1.1,1.1,1.2,2.9,0.1,4
							C-98.1-730.9-110.2-724.9-122.2-724.9z"/>
						<path class="st1" d="M-181.2-806.2c-1.4,0-2.7-1.1-2.8-2.6c-0.1-1.6,1-2.9,2.6-3.1l4-0.4c1.7-3.9,6.3-14.4,8.4-21.7
							c4.5-15,3.9-23,3.9-23.1c-0.1-1.2,0.6-2.3,1.7-2.8c1.1-0.5,2.4-0.2,3.2,0.7c0.2,0.2,16.5,18,39,14.9
							c7.6-1.1,18.3-7.6,26.1-12.3c8.9-5.4,12.3-7.5,14.6-4.6c8.9,10.9,12.3,37.4,13.2,45.7l3.2,0.1c1.6,0.1,2.8,1.4,2.7,2.9
							c-0.1,1.6-1.4,2.7-2.9,2.7L-70-810c-1.4-0.1-2.6-1.2-2.7-2.6c0-0.3-2.7-31.6-11.3-43.9c-1.8,0.8-5.3,2.9-8.2,4.7
							c-8.2,5-19.5,11.9-28.2,13.1c-18.1,2.5-32.3-6.5-39.3-12.3c-0.4,4.2-1.4,10.5-3.9,18.6c-2.8,9.4-9.1,23.4-9.4,24
							c-0.4,0.9-1.3,1.6-2.3,1.7l-5.6,0.5C-181.1-806.2-181.1-806.2-181.2-806.2z"/>
						<path class="st1" d="M-216.9-644.1c-1.3,0-2.5-0.9-2.8-2.2l-8.9-39.5c-0.2-0.8,0-1.7,0.5-2.4c0.5-0.7,1.4-1.1,2.2-1.1H-17
							c0.9,0,1.7,0.4,2.2,1.1c0.5,0.7,0.7,1.6,0.5,2.4l-8.9,39.5c-0.3,1.5-1.9,2.5-3.4,2.1c-1.5-0.3-2.5-1.9-2.1-3.4l8.2-36h-201.7
							l8.2,36.1c0.3,1.5-0.6,3-2.1,3.4C-216.5-644.1-216.7-644.1-216.9-644.1z"/>
						<path class="st1" d="M-30.2-617.9h-182.5c-2.3,0-4.3-1.6-4.9-3.8l-4.9-20.1h-40.4c-1.5,0-3-0.7-3.9-1.9
							c-0.9-1.2-1.3-2.8-0.9-4.3c4-16.6,14.1-55.9,20.1-61.7c2.6-2.5,30.7-13.9,83.6-33.8c-10.9-14.3-16-30.6-17.9-37.6
							c-4.4-4.1-7.7-11.9-7.8-18.8c0-5,1.6-9.3,4.7-12.6c-2.9-8.1-10-29,1.5-54.4c8.3-18.5,18.1-27.8,28.9-27.8
							c6.8,0,12.1,3.7,15.4,6.8c6.5-4.9,20.1-13.6,35.4-13.6c12.5,0,29.9,6,42.3,34.7c4.6,10.8,3.4,31.4,2.6,45
							c-0.2,2.9-0.4,6.1-0.4,7.9c3.4,3.7,5.2,8.8,5,14.8c-0.2,6.9-3.1,14-7,17.9c-2.7,10.4-9.4,24.8-19.3,37.1
							c26,8.9,82.6,28.7,88.7,34.1c6.3,5.6,13.8,40.6,17.7,61.5c0.2,0.5,0.3,1.1,0.3,1.7c0,2.8-2.2,5-5,5c0,0,0,0-0.1,0h-41.6
							l-4.9,20.1C-25.9-619.5-27.9-617.9-30.2-617.9z M-208.7-627.9h174.6l4.9-20.1c0.5-2.2,2.5-3.8,4.9-3.8H15
							c-4.5-22.9-10.6-47.4-13.6-50.9c-4.5-3.5-50.9-20.4-92.3-34.4c-1.6-0.5-2.8-1.9-3.2-3.5c-0.4-1.7,0.1-3.4,1.2-4.6
							c11.9-12.5,19.9-29.4,22.3-39.8c0.3-1.2,1-2.3,2-3c1.5-1,4.2-5.8,4.4-11.5c0.1-2.6-0.3-6-2.9-8.2c-2.4-2-2.3-4-1.7-14.7
							c0.7-11.1,1.9-31.8-1.8-40.4c-8.2-19-19.3-28.6-33.1-28.6c-17,0-32.4,14-32.6,14.2c-1.1,1-2.5,1.4-3.9,1.3
							c-1.4-0.2-2.7-0.9-3.5-2.1c0,0-4.7-6.6-10.7-6.6c-6.4,0-13.5,7.8-19.8,21.9c-9.9,22.1-3.5,40.4-1,47.3c1,2.9,2.3,6.5-1.1,8.9
							c-2.1,1.5-3.2,3.7-3.2,6.7c0,5.1,3,10.5,5,11.9c1,0.7,1.7,1.7,2,3c1.4,5.7,7,25.6,20.6,40.4c1.1,1.2,1.6,2.9,1.2,4.5
							c-0.4,1.6-1.5,2.9-3.1,3.5c-30.7,11.5-80.8,30.8-86.8,34.2c-2.9,3.9-10,28-15.7,50.5h37.9c2.3,0,4.3,1.6,4.9,3.8L-208.7-627.9
							z"/>
					</g>
				</g>
			</g>
		</g>
		<rect x="-267.8" y="-901.5" class="st2" width="1013.4" height="283.6"/>
	</g>
</g>
<rect x="59.2" y="-0.1" class="st3" width="693.4" height="201.1"/>
</svg>
