<svg xmlns="http://www.w3.org/2000/svg" version="1.1" xmlns:xlink="http://www.w3.org/1999/xlink" xmlns:svgjs="http://svgjs.dev/svgjs" width="1500" height="1500" viewBox="0 0 1500 1500"><rect width="1500" height="1500" fill="#ffffff"></rect><g transform="matrix(0.6666666666666666,0,0,0.6666666666666666,249.39393939393938,609.5930041096819)"><svg viewBox="0 0 396 111" data-background-color="#ffffff" preserveAspectRatio="xMidYMid meet" height="420" width="1500" xmlns="http://www.w3.org/2000/svg" xmlns:xlink="http://www.w3.org/1999/xlink"><g id="tight-bounds" transform="matrix(1,0,0,1,0.2400000000000091,0.1613447993761099)"><svg viewBox="0 0 395.52 110.67731040124778" height="110.67731040124778" width="395.52"><g><svg viewBox="0 0 621.2745565099085 173.8496079471195" height="110.67731040124778" width="395.52"><g><rect width="7.308105865487706" height="150.95479705972744" x="199.3152834572803" y="11.447405443696027" fill="#3498db" opacity="1" stroke-width="0" stroke="transparent" fill-opacity="1" class="rect-qz-0" data-fill-palette-color="primary" rx="1%" id="qz-0" data-palette-color="#3498db"></rect></g><g transform="matrix(1,0,0,1,225.75455650990858,24.026971865339974)"><svg viewBox="0 0 395.52 125.79566421643955" height="125.79566421643955" width="395.52"><g id="textblocktransform"><svg viewBox="0 0 395.52 125.79566421643955" height="125.79566421643955" width="395.52" id="textblock"><g><svg viewBox="0 0 395.52 81.0381707040978" height="81.0381707040978" width="395.52"><g transform="matrix(1,0,0,1,0,0)"><svg width="395.52" viewBox="-1.85 -36.15 220.82 45.25" height="81.0381707040978" data-palette-color="#3498db"><path d="M-1.85 0L13.85-34.3 19.5-34.3 25.55 0 21 0 19.7-7.65 5.95-7.65 2.5 0-1.85 0ZM7.75-11.65L19.05-11.65 16.5-26.9Q16.3-28 16.25-30.7L16.25-30.7 16.05-30.7Q15.1-27.95 14.65-26.9L14.65-26.9 7.75-11.65ZM28.15 0L33.15-36.15 37.25-36.15 32.2 0 28.15 0ZM38.34 0L42-26.3 46.09-26.3 42.4 0 38.34 0ZM42.59-31.4L43.3-36.15 47.55-36.15 46.84-31.4 42.59-31.4ZM71.69 0.6Q66.69 0.6 63.79-2.02 60.89-4.65 60.89-9.4L60.89-9.4Q60.89-10.9 61.04-11.7L61.04-11.7 65.59-11.7Q65.34-10.3 65.34-9.35L65.34-9.35Q65.34-6.35 67.09-4.9 68.84-3.45 72.04-3.45L72.04-3.45Q74.69-3.45 76.92-4.85 79.14-6.25 79.14-9.5L79.14-9.5Q79.14-11.15 78.27-12.3 77.39-13.45 76.09-14.2 74.79-14.95 72.54-16L72.54-16Q69.89-17.15 68.24-18.18 66.59-19.2 65.44-20.9 64.29-22.6 64.29-25.1L64.29-25.1Q64.29-29.8 67.09-32.35 69.89-34.9 74.94-34.9L74.94-34.9Q80.54-34.9 83.04-32.02 85.54-29.15 85.54-24.25L85.54-24.25 80.99-24.25Q80.99-30.85 74.69-30.85L74.69-30.85Q72.59-30.85 70.72-29.78 68.84-28.7 68.84-25.6L68.84-25.6Q68.84-24.1 69.67-23.05 70.49-22 71.74-21.3 72.99-20.6 75.19-19.65L75.19-19.65Q77.89-18.5 79.62-17.48 81.34-16.45 82.54-14.65 83.74-12.85 83.74-10.15L83.74-10.15Q83.74-7.5 82.67-5.08 81.59-2.65 78.89-1.03 76.19 0.6 71.69 0.6L71.69 0.6ZM94.89 0.6Q91.84 0.6 90.04-1.85 88.24-4.3 88.24-9.15L88.24-9.15Q88.24-14.9 89.71-18.9 91.19-22.9 93.51-24.9 95.84-26.9 98.39-26.9L98.39-26.9Q102.54-26.9 103.84-22.65L103.84-22.65 104.74-26.3 107.99-26.3Q104.94-5 104.94-4.45L104.94-4.45Q104.94-3.75 105.26-3.4 105.59-3.05 106.14-3.05L106.14-3.05 107.74-3.05 107.34-0.2Q106.19 0.6 104.54 0.6L104.54 0.6Q102.89 0.6 101.94-0.4 100.99-1.4 100.94-3.55L100.94-3.55Q99.49-1.4 98.06-0.4 96.64 0.6 94.89 0.6L94.89 0.6ZM96.14-3.05Q98.29-3.05 99.71-5.65 101.14-8.25 101.79-11.68 102.44-15.1 102.44-17.6L102.44-17.6Q102.44-23.25 98.99-23.25L98.99-23.25Q96.54-23.25 95.06-20.73 93.59-18.2 93.01-14.85 92.44-11.5 92.44-8.75L92.44-8.75Q92.44-3.05 96.14-3.05L96.14-3.05ZM107.79 9.1Q106.04 9.1 104.44 8.5L104.44 8.5 104.84 5.65 107.04 5.65Q108.19 5.65 108.86 5.03 109.54 4.4 109.64 3.25L109.64 3.25 113.79-26.3 117.89-26.3 113.79 3.05Q113.39 5.65 111.96 7.38 110.54 9.1 107.79 9.1L107.79 9.1ZM114.34-31.4L115.04-36.15 119.29-36.15 118.59-31.4 114.34-31.4ZM126.78 0.6Q123.73 0.6 121.93-1.85 120.13-4.3 120.13-9.15L120.13-9.15Q120.13-14.9 121.61-18.9 123.08-22.9 125.41-24.9 127.73-26.9 130.28-26.9L130.28-26.9Q134.43-26.9 135.73-22.65L135.73-22.65 136.63-26.3 139.88-26.3Q136.83-5 136.83-4.45L136.83-4.45Q136.83-3.75 137.16-3.4 137.48-3.05 138.03-3.05L138.03-3.05 139.63-3.05 139.23-0.2Q138.08 0.6 136.43 0.6L136.43 0.6Q134.78 0.6 133.83-0.4 132.88-1.4 132.83-3.55L132.83-3.55Q131.38-1.4 129.96-0.4 128.53 0.6 126.78 0.6L126.78 0.6ZM128.03-3.05Q130.18-3.05 131.61-5.65 133.03-8.25 133.68-11.68 134.33-15.1 134.33-17.6L134.33-17.6Q134.33-23.25 130.88-23.25L130.88-23.25Q128.43-23.25 126.96-20.73 125.48-18.2 124.91-14.85 124.33-11.5 124.33-8.75L124.33-8.75Q124.33-3.05 128.03-3.05L128.03-3.05ZM149.63 0.6Q146.58 0.6 144.78-1.85 142.98-4.3 142.98-9.15L142.98-9.15Q142.98-14.9 144.46-18.9 145.93-22.9 148.25-24.9 150.58-26.9 153.13-26.9L153.13-26.9Q156.78-26.9 158.38-23.4L158.38-23.4 160.18-36.15 164.28-36.15 159.23 0 155.98 0 155.98-3.55Q153.43 0.6 149.63 0.6L149.63 0.6ZM150.88-3.05Q153.23-3.05 154.71-5.65 156.18-8.25 156.78-11.63 157.38-15 157.38-17.6L157.38-17.6Q157.38-23.25 153.73-23.25L153.73-23.25Q151.28-23.25 149.81-20.73 148.33-18.2 147.75-14.85 147.18-11.5 147.18-8.75L147.18-8.75Q147.18-3.05 150.88-3.05L150.88-3.05ZM165.98 0L169.63-26.3 173.73-26.3 170.03 0 165.98 0ZM170.23-31.4L170.93-36.15 175.18-36.15 174.48-31.4 170.23-31.4ZM183.78 0.6Q180.73 0.6 178.93-1.85 177.13-4.3 177.13-9.15L177.13-9.15Q177.13-14.9 178.6-18.9 180.08-22.9 182.4-24.9 184.73-26.9 187.28-26.9L187.28-26.9Q191.43-26.9 192.73-22.65L192.73-22.65 193.63-26.3 196.88-26.3Q193.83-5 193.83-4.45L193.83-4.45Q193.83-3.75 194.15-3.4 194.48-3.05 195.03-3.05L195.03-3.05 196.63-3.05 196.23-0.2Q195.08 0.6 193.43 0.6L193.43 0.6Q191.78 0.6 190.83-0.4 189.88-1.4 189.83-3.55L189.83-3.55Q188.38-1.4 186.95-0.4 185.53 0.6 183.78 0.6L183.78 0.6ZM185.03-3.05Q187.18-3.05 188.6-5.65 190.03-8.25 190.68-11.68 191.33-15.1 191.33-17.6L191.33-17.6Q191.33-23.25 187.88-23.25L187.88-23.25Q185.43-23.25 183.95-20.73 182.48-18.2 181.9-14.85 181.33-11.5 181.33-8.75L181.33-8.75Q181.33-3.05 185.03-3.05L185.03-3.05ZM199.37 0L203.07-26.3 206.27-26.3 206.27-22.4Q207.12-24.1 208.82-25.5 210.52-26.9 213.27-26.9L213.27-26.9Q216.27-26.9 217.62-25.23 218.97-23.55 218.97-21L218.97-21Q218.97-19.5 216.17 0L216.17 0 212.07 0Q214.77-18.55 214.77-20.05L214.77-20.05Q214.77-23.25 211.77-23.25L211.77-23.25Q209.32-23.25 207.7-20.93 206.07-18.6 205.52-14.7L205.52-14.7 203.47 0 199.37 0Z" opacity="1" transform="matrix(1,0,0,1,0,0)" fill="#3498db" class="wordmark-text-0" data-fill-palette-color="primary" id="text-0"></path></svg></g></svg></g><g transform="matrix(1,0,0,1,0,100.16933789123838)"><svg viewBox="0 0 221.68895999999998 25.62632632520117" height="25.62632632520117" width="221.68895999999998"><g transform="matrix(1,0,0,1,0,0)"><svg width="221.68895999999998" viewBox="3.55 -36.15 391.42 45.25" height="25.62632632520117" data-palette-color="#3498db"><path d="M7.4 0L3.55-34.3 8.35-34.3 11-10.1Q11.15-8.95 11.35-4.85L11.35-4.85 11.6-4.85Q13.25-9.45 13.55-10.1L13.55-10.1 23.1-34.3 30.1-34.3 31.35-10.1Q31.45-8.55 31.45-4.85L31.45-4.85 31.7-4.85 34-10.1 44.9-34.3 49.65-34.3 33.7 0 27.15 0 26-24.05Q25.9-26.15 25.85-29.65L25.85-29.65 25.6-29.65Q24.3-25.85 23.6-24.05L23.6-24.05 13.95 0 7.4 0ZM58.95 0.6Q53.1 0.6 50.22-1.95 47.35-4.5 47.35-9.8L47.35-9.8Q47.35-14.65 48.85-18.53 50.35-22.4 53.55-24.65 56.75-26.9 61.55-26.9L61.55-26.9Q66.55-26.9 69.2-24.6 71.85-22.3 71.85-17.85L71.85-17.85Q71.85-16.3 71.45-14.15L71.45-14.15 71.05-11.95 52-11.95Q51.85-11.25 51.85-10.05L51.85-10.05Q51.85-6.5 53.57-4.78 55.3-3.05 58.85-3.05L58.85-3.05Q61.7-3.05 63.72-4.5 65.75-5.95 66.25-8.95L66.25-8.95 70.55-8.95Q69.8-4.35 66.6-1.88 63.4 0.6 58.95 0.6L58.95 0.6ZM52.65-15.6L67.2-15.6Q67.4-16.3 67.4-17.55L67.4-17.55Q67.4-23.25 61.4-23.25L61.4-23.25Q58-23.25 55.77-21.28 53.55-19.3 52.65-15.6L52.65-15.6ZM87.45 0.6Q84.65 0.6 82.6-0.45 80.55-1.5 79.5-3.55L79.5-3.55 79.2-3.55 78.05 0 74.75 0 81.1-36.15 85.5-36.15 83.25-23.3 83.55-23.3Q86.85-26.9 91.7-26.9L91.7-26.9Q95.65-26.9 97.82-24.53 100-22.15 100-17.35L100-17.35Q100-12.05 98.42-7.98 96.85-3.9 94-1.65 91.15 0.6 87.45 0.6L87.45 0.6ZM86.5-3.05Q90.85-3.05 93.15-7.05 95.45-11.05 95.45-17.2L95.45-17.2Q95.45-20.45 94.15-21.85 92.85-23.25 90.05-23.25L90.05-23.25Q87.2-23.25 85.17-21.33 83.15-19.4 82.12-16.3 81.1-13.2 81.1-9.7L81.1-9.7Q81.1-6.4 82.4-4.73 83.7-3.05 86.5-3.05L86.5-3.05ZM116.69 0L122.74-34.3 138.94-34.3Q143.64-34.3 146.04-31.9 148.44-29.5 148.44-25.3L148.44-25.3Q148.44-21.8 146.84-19.03 145.24-16.25 142.44-14.7 139.64-13.15 136.19-13.15L136.19-13.15 123.74-13.15 121.44 0 116.69 0ZM124.49-17.3L136.19-17.3Q139.34-17.3 141.47-19.4 143.59-21.5 143.59-24.95L143.59-24.95Q143.59-27.45 142.29-28.8 140.99-30.15 138.44-30.15L138.44-30.15 126.74-30.15 124.49-17.3ZM149.79 0L154.44-26.3 157.79-26.3 157.59-22.35 157.89-22.35Q160.49-26.9 164.89-26.9L164.89-26.9Q166.24-26.9 167.19-26.5L167.19-26.5 166.44-22.25 164.59-22.25Q161.79-22.25 159.64-20.5 157.49-18.75 156.84-15.05L156.84-15.05 154.19 0 149.79 0ZM177.59 0.6Q172.54 0.6 169.71-2.15 166.89-4.9 166.89-9.8L166.89-9.8Q166.89-11.1 167.14-13.45L167.14-13.45Q168.14-20.25 171.54-23.58 174.94-26.9 180.79-26.9L180.79-26.9Q185.89-26.9 188.71-24.2 191.54-21.5 191.54-16.65L191.54-16.65Q191.54-15.85 191.24-12.85L191.24-12.85Q190.24-6.05 186.84-2.73 183.44 0.6 177.59 0.6L177.59 0.6ZM177.79-3.1Q181.74-3.1 183.89-5.55 186.04-8 186.84-13.45L186.84-13.45Q187.14-15.55 187.14-17.15L187.14-17.15Q187.04-20.15 185.41-21.7 183.79-23.25 180.59-23.25L180.59-23.25Q176.64-23.25 174.49-20.78 172.34-18.3 171.54-12.85L171.54-12.85Q171.29-11.1 171.29-9.15L171.29-9.15Q171.39-6.2 173.01-4.65 174.64-3.1 177.79-3.1L177.79-3.1ZM203.08 9.1Q198.58 9.1 195.98 7.23 193.38 5.35 193.38 1.75L193.38 1.75 193.38 1.25 197.68 1.25Q197.83 5.5 202.98 5.5L202.98 5.5Q209.73 5.5 211.38-2.95L211.38-2.95 211.58-4 211.28-4Q207.98-0.4 203.13-0.4L203.13-0.4Q199.08-0.4 196.86-2.65 194.63-4.9 194.63-9.45L194.63-9.45Q194.63-14.6 196.21-18.57 197.78-22.55 200.63-24.73 203.48-26.9 207.18-26.9L207.18-26.9Q209.98-26.9 212.03-25.85 214.08-24.8 215.13-22.75L215.13-22.75 215.43-22.75 216.58-26.3 219.88-26.3 215.78-3.15Q214.68 3 211.56 6.05 208.43 9.1 203.08 9.1L203.08 9.1ZM204.78-4.05Q207.53-4.05 209.53-5.9 211.53-7.75 212.53-10.75 213.53-13.75 213.53-17.1L213.53-17.1Q213.53-20.15 212.23-21.7 210.93-23.25 208.13-23.25L208.13-23.25Q203.78-23.25 201.48-19.4 199.18-15.55 199.18-9.6L199.18-9.6Q199.18-6.6 200.51-5.33 201.83-4.05 204.78-4.05L204.78-4.05ZM222.03 0L226.68-26.3 230.03-26.3 229.83-22.35 230.13-22.35Q232.73-26.9 237.13-26.9L237.13-26.9Q238.48-26.9 239.43-26.5L239.43-26.5 238.68-22.25 236.83-22.25Q234.03-22.25 231.88-20.5 229.73-18.75 229.08-15.05L229.08-15.05 226.43 0 222.03 0ZM247.33 0.6Q243.48 0.6 241.28-1.83 239.08-4.25 239.08-8.95L239.08-8.95Q239.08-14.3 240.73-18.38 242.38-22.45 245.25-24.68 248.13-26.9 251.68-26.9L251.68-26.9Q254.43-26.9 256.13-26.05 257.83-25.2 258.78-23.3L258.78-23.3 259.08-23.3 260.63-26.3 263.98-26.3 262.73-19.65Q260.03-5 260.03-4.4L260.03-4.4Q260.03-3.05 261.53-3.05L261.53-3.05 263.53-3.05 263.03-0.2Q262.53 0.1 261.65 0.35 260.78 0.6 259.73 0.6L259.73 0.6Q256.08 0.6 256.08-3.15L256.08-3.15Q256.08-3.8 256.13-4.15L256.13-4.15 255.88-4.15Q254.53-1.85 252.23-0.63 249.93 0.6 247.33 0.6L247.33 0.6ZM248.43-3.05Q251.58-3.05 253.65-5.3 255.73-7.55 256.68-10.78 257.63-14 257.63-17.05L257.63-17.05Q257.63-20.15 256.35-21.7 255.08-23.25 252.28-23.25L252.28-23.25Q249.53-23.25 247.58-21.35 245.63-19.45 244.65-16.25 243.68-13.05 243.68-9.2L243.68-9.2Q243.68-3.05 248.43-3.05L248.43-3.05ZM266.48 0L271.13-26.3 274.33-26.3 274.33-22.75 274.68-22.75Q277.98-26.9 282.93-26.9L282.93-26.9Q288.38-26.9 289.38-22.75L289.38-22.75 289.68-22.75Q291.33-24.75 293.58-25.83 295.83-26.9 298.18-26.9L298.18-26.9Q305.13-26.9 305.13-21.2L305.13-21.2Q305.13-20 304.93-18.95L304.93-18.95 301.58 0 297.18 0 300.38-18.15Q300.58-19.35 300.58-19.7L300.58-19.7Q300.58-21.65 299.6-22.45 298.63-23.25 296.98-23.25L296.98-23.25Q294.18-23.25 291.85-21.05 289.53-18.85 288.88-15.15L288.88-15.15 286.23 0 281.83 0 285.03-18.15Q285.18-19.05 285.18-19.75L285.18-19.75Q285.18-21.7 284.28-22.48 283.38-23.25 281.73-23.25L281.73-23.25Q279.93-23.25 278.2-22.28 276.48-21.3 275.23-19.45 273.98-17.6 273.53-15.15L273.53-15.15 270.88 0 266.48 0ZM308.12 0L312.77-26.3 315.97-26.3 315.97-22.75 316.32-22.75Q319.62-26.9 324.57-26.9L324.57-26.9Q330.02-26.9 331.02-22.75L331.02-22.75 331.32-22.75Q332.97-24.75 335.22-25.83 337.47-26.9 339.82-26.9L339.82-26.9Q346.77-26.9 346.77-21.2L346.77-21.2Q346.77-20 346.57-18.95L346.57-18.95 343.22 0 338.82 0 342.02-18.15Q342.22-19.35 342.22-19.7L342.22-19.7Q342.22-21.65 341.25-22.45 340.27-23.25 338.62-23.25L338.62-23.25Q335.82-23.25 333.5-21.05 331.17-18.85 330.52-15.15L330.52-15.15 327.87 0 323.47 0 326.67-18.15Q326.82-19.05 326.82-19.75L326.82-19.75Q326.82-21.7 325.92-22.48 325.02-23.25 323.37-23.25L323.37-23.25Q321.57-23.25 319.85-22.28 318.12-21.3 316.87-19.45 315.62-17.6 315.17-15.15L315.17-15.15 312.52 0 308.12 0ZM361.77 0.6Q355.92 0.6 353.05-1.95 350.17-4.5 350.17-9.8L350.17-9.8Q350.17-14.65 351.67-18.53 353.17-22.4 356.37-24.65 359.57-26.9 364.37-26.9L364.37-26.9Q369.37-26.9 372.02-24.6 374.67-22.3 374.67-17.85L374.67-17.85Q374.67-16.3 374.27-14.15L374.27-14.15 373.87-11.95 354.82-11.95Q354.67-11.25 354.67-10.05L354.67-10.05Q354.67-6.5 356.4-4.78 358.12-3.05 361.67-3.05L361.67-3.05Q364.52-3.05 366.55-4.5 368.57-5.95 369.07-8.95L369.07-8.95 373.37-8.95Q372.62-4.35 369.42-1.88 366.22 0.6 361.77 0.6L361.77 0.6ZM355.47-15.6L370.02-15.6Q370.22-16.3 370.22-17.55L370.22-17.55Q370.22-23.25 364.22-23.25L364.22-23.25Q360.82-23.25 358.6-21.28 356.37-19.3 355.47-15.6L355.47-15.6ZM377.57 0L382.22-26.3 385.57-26.3 385.37-22.35 385.67-22.35Q388.27-26.9 392.67-26.9L392.67-26.9Q394.02-26.9 394.97-26.5L394.97-26.5 394.22-22.25 392.37-22.25Q389.57-22.25 387.42-20.5 385.27-18.75 384.62-15.05L384.62-15.05 381.97 0 377.57 0Z" opacity="1" transform="matrix(1,0,0,1,0,0)" fill="#3498db" class="slogan-text-1" data-fill-palette-color="secondary" id="text-1"></path></svg></g></svg></g></svg></g></svg></g><g><svg viewBox="0 0 180.1841162701397 173.8496079471195" height="173.8496079471195" width="180.1841162701397"><g><svg xmlns="http://www.w3.org/2000/svg" xmlns:xlink="http://www.w3.org/1999/xlink" version="1.1" x="0" y="0" viewBox="5.840426051556689 7.385000000000012 88.33757394844332 85.232" enable-background="new 0 0 100 100" xml:space="preserve" height="173.8496079471195" width="180.1841162701397" class="icon-icon-0" data-fill-palette-color="accent" id="icon-0"><g fill="#e74c3c" data-fill-palette-color="accent"><path d="M49.595 60.478c-3.969 0-7.561-1.712-10.678-5.089-0.318-0.345-0.297-0.883 0.048-1.201 0.346-0.317 0.883-0.297 1.201 0.049 2.782 3.014 5.954 4.542 9.429 4.542 3.945 0 7.224-2.566 9.281-4.719 0.325-0.34 0.862-0.352 1.202-0.027 0.339 0.324 0.352 0.862 0.027 1.201C56.827 58.664 53.193 60.478 49.595 60.478z" fill="#e74c3c" data-fill-palette-color="accent"></path><path d="M31.855 36.018c-0.435 0-0.806-0.332-0.846-0.774-0.042-0.467 0.303-0.88 0.771-0.922l1.196-0.106c0.514-1.166 1.879-4.337 2.534-6.535 1.345-4.516 1.169-6.906 1.167-6.931-0.03-0.363 0.176-0.706 0.51-0.851 0.336-0.144 0.725-0.062 0.969 0.21 0.049 0.055 4.966 5.405 11.725 4.467 2.284-0.318 5.496-2.277 7.841-3.707 2.687-1.638 3.693-2.252 4.399-1.391 2.681 3.271 3.703 11.243 3.964 13.745l0.976 0.04c0.469 0.02 0.834 0.415 0.814 0.885-0.019 0.469-0.425 0.82-0.884 0.814l-1.717-0.07c-0.429-0.018-0.777-0.353-0.813-0.78-0.008-0.098-0.805-9.511-3.393-13.208-0.543 0.246-1.59 0.885-2.462 1.416-2.472 1.508-5.858 3.572-8.491 3.939-5.449 0.758-9.715-1.962-11.811-3.693-0.125 1.27-0.435 3.144-1.167 5.6-0.844 2.836-2.735 7.025-2.815 7.202-0.126 0.279-0.394 0.469-0.699 0.496l-1.694 0.151C31.906 36.017 31.881 36.018 31.855 36.018z" fill="#e74c3c" data-fill-palette-color="accent"></path><path d="M21.131 84.761c-0.388 0-0.739-0.269-0.828-0.663l-2.687-11.873c-0.057-0.252 0.004-0.517 0.165-0.718 0.161-0.202 0.406-0.319 0.664-0.319h62.76c0.258 0 0.503 0.117 0.664 0.319 0.161 0.201 0.222 0.466 0.165 0.718l-2.685 11.863c-0.104 0.458-0.565 0.746-1.017 0.642-0.458-0.104-0.745-0.559-0.642-1.017l2.45-10.826H19.509l2.452 10.836c0.104 0.458-0.184 0.913-0.642 1.017C21.257 84.754 21.194 84.761 21.131 84.761z" fill="#e74c3c" data-fill-palette-color="accent"></path><path d="M77.247 92.617H22.403c-0.693 0-1.295-0.475-1.458-1.148l-1.461-6.052H7.341c-0.46 0-0.895-0.211-1.18-0.573-0.284-0.362-0.387-0.835-0.278-1.282 1.217-4.992 4.242-16.793 6.037-18.541 0.771-0.751 9.218-4.164 25.113-10.147-3.276-4.292-4.821-9.209-5.37-11.303-1.335-1.242-2.326-3.582-2.332-5.646-0.004-1.497 0.49-2.807 1.41-3.787-0.865-2.449-3.006-8.719 0.436-16.355 2.5-5.548 5.426-8.36 8.696-8.36 2.03 0 3.638 1.122 4.621 2.051 1.94-1.468 6.049-4.089 10.65-4.089 3.752 0 9.002 1.809 12.708 10.422 1.393 3.237 1.026 9.424 0.784 13.518-0.052 0.875-0.109 1.84-0.115 2.372 1.029 1.099 1.555 2.648 1.491 4.437-0.075 2.078-0.932 4.223-2.104 5.385-0.808 3.128-2.824 7.454-5.815 11.154 7.827 2.683 24.824 8.623 26.666 10.241 1.908 1.676 4.139 12.194 5.329 18.491 0.059 0.161 0.09 0.334 0.09 0.515 0 0.828-0.671 1.5-1.5 1.5-0.007 0-0.013 0-0.02 0H80.166l-1.461 6.053C78.542 92.143 77.939 92.617 77.247 92.617zM23.584 89.617h52.481l1.461-6.053c0.163-0.673 0.765-1.147 1.458-1.147h11.857c-1.361-6.876-3.201-14.244-4.098-15.286-1.354-1.046-15.314-6.122-27.737-10.345-0.485-0.165-0.852-0.565-0.974-1.063-0.122-0.498 0.019-1.023 0.373-1.394 3.589-3.757 5.987-8.836 6.696-11.964 0.082-0.359 0.292-0.677 0.592-0.891 0.441-0.314 1.26-1.736 1.321-3.452 0.027-0.769-0.101-1.817-0.867-2.451-0.732-0.605-0.698-1.189-0.506-4.428 0.198-3.345 0.567-9.57-0.545-12.154-2.457-5.711-5.806-8.607-9.953-8.607-5.1 0-9.749 4.217-9.795 4.259-0.319 0.293-0.746 0.433-1.18 0.387-0.431-0.048-0.82-0.279-1.067-0.636-0.01-0.014-1.42-1.972-3.229-1.972-1.928 0-4.045 2.342-5.961 6.593-2.99 6.635-1.044 12.14-0.311 14.213 0.309 0.872 0.692 1.958-0.32 2.662-0.643 0.445-0.953 1.107-0.95 2.026 0.004 1.527 0.914 3.161 1.513 3.571 0.307 0.21 0.524 0.526 0.611 0.888 0.415 1.726 2.089 7.701 6.188 12.141 0.339 0.367 0.473 0.878 0.357 1.364-0.115 0.485-0.465 0.882-0.933 1.058-9.238 3.468-24.286 9.25-26.098 10.289-0.858 1.18-2.997 8.402-4.711 15.191h11.406c0.693 0 1.295 0.475 1.458 1.148L23.584 89.617z" fill="#e74c3c" data-fill-palette-color="accent"></path></g></svg></g></svg></g></svg></g><defs></defs></svg><rect width="395.52" height="110.67731040124778" fill="none" stroke="none" visibility="hidden"></rect></g></svg></g></svg>